<svg xmlns="http://www.w3.org/2000/svg" viewBox="0 0 128 128" width="128" height="128">
  <defs>
    <linearGradient id="bg" x1="0" y1="0" x2="1" y2="1">
      <stop offset="0%" stop-color="#2EC4B6"/>
      <stop offset="100%" stop-color="#1B9AAA"/>
    </linearGradient>
  </defs>

  <!-- Rounded square background -->
  <rect x="4" y="4" width="120" height="120" rx="24" ry="24" fill="url(#bg)"/>

  <!-- Tooth silhouette - white -->
  <path d="
    M 44 28
    C 34 28, 26 36, 26 46
    C 26 56, 32 62, 34 70
    L 40 98
    C 41 102, 45 104, 48 100
    L 52 82
    C 53 79, 55 78, 58 78
    L 70 78
    C 73 78, 75 79, 76 82
    L 80 100
    C 83 104, 87 102, 88 98
    L 94 70
    C 96 62, 102 56, 102 46
    C 102 36, 94 28, 84 28
    C 78 28, 74 32, 70 36
    C 68 38, 66 39, 64 39
    C 62 39, 60 38, 58 36
    C 54 32, 50 28, 44 28 Z
  " fill="white" opacity="0.95"/>

  <!-- Paw print on the tooth -->
  <!-- Main pad -->
  <ellipse cx="64" cy="60" rx="8" ry="7" fill="#1B9AAA"/>
  <!-- Toe pads -->
  <ellipse cx="52" cy="48" rx="4.5" ry="5" fill="#1B9AAA"/>
  <ellipse cx="62" cy="43" rx="4.5" ry="4.5" fill="#1B9AAA"/>
  <ellipse cx="76" cy="48" rx="4.5" ry="5" fill="#1B9AAA"/>
  <ellipse cx="66" cy="43" rx="4.5" ry="4.5" fill="#1B9AAA"/>
</svg>
